<mxfile host="app.diagrams.net" modified="2023-03-10T10:08:40.184Z" agent="5.0 (Windows)" etag="MpwEX3CQaBuqzrU3Zzp1" version="21.0.6" type="github">
  <diagram id="C5RBs43oDa-KdzZeNtuy" name="Page-1">
    <mxGraphModel dx="2901" dy="1120" grid="1" gridSize="10" guides="1" tooltips="1" connect="1" arrows="1" fold="1" page="1" pageScale="1" pageWidth="827" pageHeight="1169" math="0" shadow="0">
      <root>
        <mxCell id="WIyWlLk6GJQsqaUBKTNV-0" />
        <mxCell id="WIyWlLk6GJQsqaUBKTNV-1" parent="WIyWlLk6GJQsqaUBKTNV-0" />
        <mxCell id="zvFiyfZQ2bwcgoLFCZvI-0" value="Bien" style="swimlane;fontStyle=1;align=center;verticalAlign=top;childLayout=stackLayout;horizontal=1;startSize=26;horizontalStack=0;resizeParent=1;resizeParentMax=0;resizeLast=0;collapsible=1;marginBottom=0;whiteSpace=wrap;html=1;" parent="WIyWlLk6GJQsqaUBKTNV-1" vertex="1">
          <mxGeometry x="510" y="280" width="210" height="80" as="geometry" />
        </mxCell>
        <mxCell id="zvFiyfZQ2bwcgoLFCZvI-1" value="&lt;div&gt;+ surfaceRéelle: Numérique&lt;/div&gt;&lt;div&gt;+ nombrePièces: Texte&lt;br&gt;&lt;/div&gt;" style="text;strokeColor=none;fillColor=none;align=left;verticalAlign=top;spacingLeft=4;spacingRight=4;overflow=hidden;rotatable=0;points=[[0,0.5],[1,0.5]];portConstraint=eastwest;whiteSpace=wrap;html=1;" parent="zvFiyfZQ2bwcgoLFCZvI-0" vertex="1">
          <mxGeometry y="26" width="210" height="44" as="geometry" />
        </mxCell>
        <mxCell id="zvFiyfZQ2bwcgoLFCZvI-2" value="" style="line;strokeWidth=1;fillColor=none;align=left;verticalAlign=middle;spacingTop=-1;spacingLeft=3;spacingRight=3;rotatable=0;labelPosition=right;points=[];portConstraint=eastwest;strokeColor=inherit;" parent="zvFiyfZQ2bwcgoLFCZvI-0" vertex="1">
          <mxGeometry y="70" width="210" height="10" as="geometry" />
        </mxCell>
        <mxCell id="zvFiyfZQ2bwcgoLFCZvI-20" value="IndustrielCommercial" style="swimlane;fontStyle=1;align=center;verticalAlign=top;childLayout=stackLayout;horizontal=1;startSize=26;horizontalStack=0;resizeParent=1;resizeParentMax=0;resizeLast=0;collapsible=1;marginBottom=0;whiteSpace=wrap;html=1;" parent="WIyWlLk6GJQsqaUBKTNV-1" vertex="1">
          <mxGeometry x="1041" y="306" width="210" height="60" as="geometry" />
        </mxCell>
        <mxCell id="zvFiyfZQ2bwcgoLFCZvI-21" value="&lt;div&gt;+ surfaceTerrain: Numérique&lt;/div&gt;&lt;div&gt;&lt;br&gt;&lt;/div&gt;&lt;div&gt;&lt;br&gt;&lt;br&gt;&lt;/div&gt;" style="text;strokeColor=none;fillColor=none;align=left;verticalAlign=top;spacingLeft=4;spacingRight=4;overflow=hidden;rotatable=0;points=[[0,0.5],[1,0.5]];portConstraint=eastwest;whiteSpace=wrap;html=1;" parent="zvFiyfZQ2bwcgoLFCZvI-20" vertex="1">
          <mxGeometry y="26" width="210" height="24" as="geometry" />
        </mxCell>
        <mxCell id="zvFiyfZQ2bwcgoLFCZvI-22" value="" style="line;strokeWidth=1;fillColor=none;align=left;verticalAlign=middle;spacingTop=-1;spacingLeft=3;spacingRight=3;rotatable=0;labelPosition=right;points=[];portConstraint=eastwest;strokeColor=inherit;" parent="zvFiyfZQ2bwcgoLFCZvI-20" vertex="1">
          <mxGeometry y="50" width="210" height="10" as="geometry" />
        </mxCell>
        <mxCell id="zvFiyfZQ2bwcgoLFCZvI-23" value="Habitational" style="swimlane;fontStyle=1;align=center;verticalAlign=top;childLayout=stackLayout;horizontal=1;startSize=26;horizontalStack=0;resizeParent=1;resizeParentMax=0;resizeLast=0;collapsible=1;marginBottom=0;whiteSpace=wrap;html=1;" parent="WIyWlLk6GJQsqaUBKTNV-1" vertex="1">
          <mxGeometry x="1041" y="226" width="140" height="60" as="geometry" />
        </mxCell>
        <mxCell id="zvFiyfZQ2bwcgoLFCZvI-24" value="+ nombrePièces: Texte" style="text;strokeColor=none;fillColor=none;align=left;verticalAlign=top;spacingLeft=4;spacingRight=4;overflow=hidden;rotatable=0;points=[[0,0.5],[1,0.5]];portConstraint=eastwest;whiteSpace=wrap;html=1;" parent="zvFiyfZQ2bwcgoLFCZvI-23" vertex="1">
          <mxGeometry y="26" width="140" height="24" as="geometry" />
        </mxCell>
        <mxCell id="zvFiyfZQ2bwcgoLFCZvI-25" value="" style="line;strokeWidth=1;fillColor=none;align=left;verticalAlign=middle;spacingTop=-1;spacingLeft=3;spacingRight=3;rotatable=0;labelPosition=right;points=[];portConstraint=eastwest;strokeColor=inherit;" parent="zvFiyfZQ2bwcgoLFCZvI-23" vertex="1">
          <mxGeometry y="50" width="140" height="10" as="geometry" />
        </mxCell>
        <mxCell id="zvFiyfZQ2bwcgoLFCZvI-26" value="Appartement" style="swimlane;fontStyle=1;align=center;verticalAlign=top;childLayout=stackLayout;horizontal=1;startSize=26;horizontalStack=0;resizeParent=1;resizeParentMax=0;resizeLast=0;collapsible=1;marginBottom=0;whiteSpace=wrap;html=1;" parent="WIyWlLk6GJQsqaUBKTNV-1" vertex="1">
          <mxGeometry x="1273" y="206" width="126" height="34" as="geometry" />
        </mxCell>
        <mxCell id="zvFiyfZQ2bwcgoLFCZvI-28" value="" style="line;strokeWidth=1;fillColor=none;align=left;verticalAlign=middle;spacingTop=-1;spacingLeft=3;spacingRight=3;rotatable=0;labelPosition=right;points=[];portConstraint=eastwest;strokeColor=inherit;" parent="zvFiyfZQ2bwcgoLFCZvI-26" vertex="1">
          <mxGeometry y="26" width="126" height="8" as="geometry" />
        </mxCell>
        <mxCell id="zvFiyfZQ2bwcgoLFCZvI-33" value="Adresse" style="swimlane;fontStyle=1;align=center;verticalAlign=top;childLayout=stackLayout;horizontal=1;startSize=26;horizontalStack=0;resizeParent=1;resizeParentMax=0;resizeLast=0;collapsible=1;marginBottom=0;whiteSpace=wrap;html=1;" parent="WIyWlLk6GJQsqaUBKTNV-1" vertex="1">
          <mxGeometry x="530" y="78" width="170" height="100" as="geometry" />
        </mxCell>
        <mxCell id="zvFiyfZQ2bwcgoLFCZvI-34" value="&lt;div&gt;+ numéroRue: Texte&lt;br&gt;&lt;/div&gt;&lt;div&gt;+ longitud: Numérique&lt;/div&gt;&lt;div&gt;+ latitud: Numérique&lt;br&gt;&lt;/div&gt;" style="text;strokeColor=none;fillColor=none;align=left;verticalAlign=top;spacingLeft=4;spacingRight=4;overflow=hidden;rotatable=0;points=[[0,0.5],[1,0.5]];portConstraint=eastwest;whiteSpace=wrap;html=1;" parent="zvFiyfZQ2bwcgoLFCZvI-33" vertex="1">
          <mxGeometry y="26" width="170" height="64" as="geometry" />
        </mxCell>
        <mxCell id="zvFiyfZQ2bwcgoLFCZvI-35" value="" style="line;strokeWidth=1;fillColor=none;align=left;verticalAlign=middle;spacingTop=-1;spacingLeft=3;spacingRight=3;rotatable=0;labelPosition=right;points=[];portConstraint=eastwest;strokeColor=inherit;" parent="zvFiyfZQ2bwcgoLFCZvI-33" vertex="1">
          <mxGeometry y="90" width="170" height="10" as="geometry" />
        </mxCell>
        <mxCell id="zvFiyfZQ2bwcgoLFCZvI-36" value="NatureMutation" style="swimlane;fontStyle=1;align=center;verticalAlign=top;childLayout=stackLayout;horizontal=1;startSize=26;horizontalStack=0;resizeParent=1;resizeParentMax=0;resizeLast=0;collapsible=1;marginBottom=0;whiteSpace=wrap;html=1;" parent="WIyWlLk6GJQsqaUBKTNV-1" vertex="1">
          <mxGeometry x="510" y="640" width="210" height="60" as="geometry" />
        </mxCell>
        <mxCell id="zvFiyfZQ2bwcgoLFCZvI-37" value="&lt;div&gt;+ nom: Texte&lt;br&gt;&lt;/div&gt;&lt;div&gt;&lt;br&gt;&lt;/div&gt;&lt;div&gt;&lt;br&gt;&lt;br&gt;&lt;/div&gt;" style="text;strokeColor=none;fillColor=none;align=left;verticalAlign=top;spacingLeft=4;spacingRight=4;overflow=hidden;rotatable=0;points=[[0,0.5],[1,0.5]];portConstraint=eastwest;whiteSpace=wrap;html=1;" parent="zvFiyfZQ2bwcgoLFCZvI-36" vertex="1">
          <mxGeometry y="26" width="210" height="24" as="geometry" />
        </mxCell>
        <mxCell id="zvFiyfZQ2bwcgoLFCZvI-38" value="" style="line;strokeWidth=1;fillColor=none;align=left;verticalAlign=middle;spacingTop=-1;spacingLeft=3;spacingRight=3;rotatable=0;labelPosition=right;points=[];portConstraint=eastwest;strokeColor=inherit;" parent="zvFiyfZQ2bwcgoLFCZvI-36" vertex="1">
          <mxGeometry y="50" width="210" height="10" as="geometry" />
        </mxCell>
        <mxCell id="zvFiyfZQ2bwcgoLFCZvI-39" value="Commune" style="swimlane;fontStyle=1;align=center;verticalAlign=top;childLayout=stackLayout;horizontal=1;startSize=26;horizontalStack=0;resizeParent=1;resizeParentMax=0;resizeLast=0;collapsible=1;marginBottom=0;whiteSpace=wrap;html=1;" parent="WIyWlLk6GJQsqaUBKTNV-1" vertex="1">
          <mxGeometry x="230" y="130" width="170" height="58" as="geometry" />
        </mxCell>
        <mxCell id="zvFiyfZQ2bwcgoLFCZvI-40" value="&lt;div&gt;+ nom: Texte&lt;br&gt;&lt;/div&gt;&lt;div&gt;&lt;br&gt;&lt;/div&gt;&lt;div&gt;&lt;br&gt;&lt;/div&gt;" style="text;strokeColor=none;fillColor=none;align=left;verticalAlign=top;spacingLeft=4;spacingRight=4;overflow=hidden;rotatable=0;points=[[0,0.5],[1,0.5]];portConstraint=eastwest;whiteSpace=wrap;html=1;" parent="zvFiyfZQ2bwcgoLFCZvI-39" vertex="1">
          <mxGeometry y="26" width="170" height="24" as="geometry" />
        </mxCell>
        <mxCell id="zvFiyfZQ2bwcgoLFCZvI-41" value="" style="line;strokeWidth=1;fillColor=none;align=left;verticalAlign=middle;spacingTop=-1;spacingLeft=3;spacingRight=3;rotatable=0;labelPosition=right;points=[];portConstraint=eastwest;strokeColor=inherit;" parent="zvFiyfZQ2bwcgoLFCZvI-39" vertex="1">
          <mxGeometry y="50" width="170" height="8" as="geometry" />
        </mxCell>
        <mxCell id="zvFiyfZQ2bwcgoLFCZvI-42" value="Maison" style="swimlane;fontStyle=1;align=center;verticalAlign=top;childLayout=stackLayout;horizontal=1;startSize=26;horizontalStack=0;resizeParent=1;resizeParentMax=0;resizeLast=0;collapsible=1;marginBottom=0;whiteSpace=wrap;html=1;" parent="WIyWlLk6GJQsqaUBKTNV-1" vertex="1">
          <mxGeometry x="1271" y="120" width="170" height="58" as="geometry" />
        </mxCell>
        <mxCell id="zvFiyfZQ2bwcgoLFCZvI-43" value="&lt;div&gt;+ surfaceTerrain: Numérique&lt;/div&gt;&lt;div&gt;&lt;br&gt;&lt;/div&gt;&lt;div&gt;&lt;br&gt;&lt;/div&gt;" style="text;strokeColor=none;fillColor=none;align=left;verticalAlign=top;spacingLeft=4;spacingRight=4;overflow=hidden;rotatable=0;points=[[0,0.5],[1,0.5]];portConstraint=eastwest;whiteSpace=wrap;html=1;" parent="zvFiyfZQ2bwcgoLFCZvI-42" vertex="1">
          <mxGeometry y="26" width="170" height="24" as="geometry" />
        </mxCell>
        <mxCell id="zvFiyfZQ2bwcgoLFCZvI-44" value="" style="line;strokeWidth=1;fillColor=none;align=left;verticalAlign=middle;spacingTop=-1;spacingLeft=3;spacingRight=3;rotatable=0;labelPosition=right;points=[];portConstraint=eastwest;strokeColor=inherit;" parent="zvFiyfZQ2bwcgoLFCZvI-42" vertex="1">
          <mxGeometry y="50" width="170" height="8" as="geometry" />
        </mxCell>
        <mxCell id="zvFiyfZQ2bwcgoLFCZvI-48" value="Departement" style="swimlane;fontStyle=1;align=center;verticalAlign=top;childLayout=stackLayout;horizontal=1;startSize=26;horizontalStack=0;resizeParent=1;resizeParentMax=0;resizeLast=0;collapsible=1;marginBottom=0;whiteSpace=wrap;html=1;" parent="WIyWlLk6GJQsqaUBKTNV-1" vertex="1">
          <mxGeometry x="230" y="218" width="170" height="58" as="geometry" />
        </mxCell>
        <mxCell id="zvFiyfZQ2bwcgoLFCZvI-49" value="&lt;div&gt;+ nom: Texte&lt;/div&gt;&lt;div&gt;&lt;br&gt;&lt;/div&gt;&lt;div&gt;&lt;br&gt;&lt;/div&gt;" style="text;strokeColor=none;fillColor=none;align=left;verticalAlign=top;spacingLeft=4;spacingRight=4;overflow=hidden;rotatable=0;points=[[0,0.5],[1,0.5]];portConstraint=eastwest;whiteSpace=wrap;html=1;" parent="zvFiyfZQ2bwcgoLFCZvI-48" vertex="1">
          <mxGeometry y="26" width="170" height="24" as="geometry" />
        </mxCell>
        <mxCell id="zvFiyfZQ2bwcgoLFCZvI-50" value="" style="line;strokeWidth=1;fillColor=none;align=left;verticalAlign=middle;spacingTop=-1;spacingLeft=3;spacingRight=3;rotatable=0;labelPosition=right;points=[];portConstraint=eastwest;strokeColor=inherit;" parent="zvFiyfZQ2bwcgoLFCZvI-48" vertex="1">
          <mxGeometry y="50" width="170" height="8" as="geometry" />
        </mxCell>
        <mxCell id="zvFiyfZQ2bwcgoLFCZvI-51" value="Région" style="swimlane;fontStyle=1;align=center;verticalAlign=top;childLayout=stackLayout;horizontal=1;startSize=26;horizontalStack=0;resizeParent=1;resizeParentMax=0;resizeLast=0;collapsible=1;marginBottom=0;whiteSpace=wrap;html=1;" parent="WIyWlLk6GJQsqaUBKTNV-1" vertex="1">
          <mxGeometry x="230" y="312" width="170" height="58" as="geometry" />
        </mxCell>
        <mxCell id="zvFiyfZQ2bwcgoLFCZvI-52" value="&lt;div&gt;+ nom: Texte&lt;br&gt;&lt;/div&gt;&lt;div&gt;&lt;br&gt;&lt;/div&gt;&lt;div&gt;&lt;br&gt;&lt;/div&gt;" style="text;strokeColor=none;fillColor=none;align=left;verticalAlign=top;spacingLeft=4;spacingRight=4;overflow=hidden;rotatable=0;points=[[0,0.5],[1,0.5]];portConstraint=eastwest;whiteSpace=wrap;html=1;" parent="zvFiyfZQ2bwcgoLFCZvI-51" vertex="1">
          <mxGeometry y="26" width="170" height="24" as="geometry" />
        </mxCell>
        <mxCell id="zvFiyfZQ2bwcgoLFCZvI-53" value="" style="line;strokeWidth=1;fillColor=none;align=left;verticalAlign=middle;spacingTop=-1;spacingLeft=3;spacingRight=3;rotatable=0;labelPosition=right;points=[];portConstraint=eastwest;strokeColor=inherit;" parent="zvFiyfZQ2bwcgoLFCZvI-51" vertex="1">
          <mxGeometry y="50" width="170" height="8" as="geometry" />
        </mxCell>
        <mxCell id="zvFiyfZQ2bwcgoLFCZvI-54" value="Voie" style="swimlane;fontStyle=1;align=center;verticalAlign=top;childLayout=stackLayout;horizontal=1;startSize=26;horizontalStack=0;resizeParent=1;resizeParentMax=0;resizeLast=0;collapsible=1;marginBottom=0;whiteSpace=wrap;html=1;" parent="WIyWlLk6GJQsqaUBKTNV-1" vertex="1">
          <mxGeometry x="230" y="40" width="170" height="58" as="geometry" />
        </mxCell>
        <mxCell id="zvFiyfZQ2bwcgoLFCZvI-55" value="&lt;div&gt;+ nom: Texte&lt;br&gt;&lt;/div&gt;&lt;div&gt;&lt;br&gt;&lt;/div&gt;&lt;div&gt;&lt;br&gt;&lt;/div&gt;" style="text;strokeColor=none;fillColor=none;align=left;verticalAlign=top;spacingLeft=4;spacingRight=4;overflow=hidden;rotatable=0;points=[[0,0.5],[1,0.5]];portConstraint=eastwest;whiteSpace=wrap;html=1;" parent="zvFiyfZQ2bwcgoLFCZvI-54" vertex="1">
          <mxGeometry y="26" width="170" height="24" as="geometry" />
        </mxCell>
        <mxCell id="zvFiyfZQ2bwcgoLFCZvI-56" value="" style="line;strokeWidth=1;fillColor=none;align=left;verticalAlign=middle;spacingTop=-1;spacingLeft=3;spacingRight=3;rotatable=0;labelPosition=right;points=[];portConstraint=eastwest;strokeColor=inherit;" parent="zvFiyfZQ2bwcgoLFCZvI-54" vertex="1">
          <mxGeometry y="50" width="170" height="8" as="geometry" />
        </mxCell>
        <mxCell id="zvFiyfZQ2bwcgoLFCZvI-57" value="Transaction" style="swimlane;fontStyle=1;align=center;verticalAlign=top;childLayout=stackLayout;horizontal=1;startSize=26;horizontalStack=0;resizeParent=1;resizeParentMax=0;resizeLast=0;collapsible=1;marginBottom=0;whiteSpace=wrap;html=1;" parent="WIyWlLk6GJQsqaUBKTNV-1" vertex="1">
          <mxGeometry x="530" y="460" width="170" height="100" as="geometry" />
        </mxCell>
        <mxCell id="zvFiyfZQ2bwcgoLFCZvI-58" value="&lt;div&gt;+ dateMutation: Date&lt;br&gt;&lt;/div&gt;&lt;div&gt;+ valeurFoncière: Numérique&lt;br&gt;&lt;/div&gt;&lt;div&gt;+ latitud: Numérique&lt;br&gt;&lt;/div&gt;" style="text;strokeColor=none;fillColor=none;align=left;verticalAlign=top;spacingLeft=4;spacingRight=4;overflow=hidden;rotatable=0;points=[[0,0.5],[1,0.5]];portConstraint=eastwest;whiteSpace=wrap;html=1;" parent="zvFiyfZQ2bwcgoLFCZvI-57" vertex="1">
          <mxGeometry y="26" width="170" height="64" as="geometry" />
        </mxCell>
        <mxCell id="zvFiyfZQ2bwcgoLFCZvI-59" value="" style="line;strokeWidth=1;fillColor=none;align=left;verticalAlign=middle;spacingTop=-1;spacingLeft=3;spacingRight=3;rotatable=0;labelPosition=right;points=[];portConstraint=eastwest;strokeColor=inherit;" parent="zvFiyfZQ2bwcgoLFCZvI-57" vertex="1">
          <mxGeometry y="90" width="170" height="10" as="geometry" />
        </mxCell>
        <mxCell id="zvFiyfZQ2bwcgoLFCZvI-60" value="TerrainBatir" style="swimlane;fontStyle=1;align=center;verticalAlign=top;childLayout=stackLayout;horizontal=1;startSize=26;horizontalStack=0;resizeParent=1;resizeParentMax=0;resizeLast=0;collapsible=1;marginBottom=0;whiteSpace=wrap;html=1;" parent="WIyWlLk6GJQsqaUBKTNV-1" vertex="1">
          <mxGeometry x="1041" y="386" width="210" height="60" as="geometry" />
        </mxCell>
        <mxCell id="zvFiyfZQ2bwcgoLFCZvI-61" value="&lt;div&gt;+ surfaceTerrain: Numérique&lt;/div&gt;&lt;div&gt;&lt;br&gt;&lt;/div&gt;&lt;div&gt;&lt;br&gt;&lt;br&gt;&lt;/div&gt;" style="text;strokeColor=none;fillColor=none;align=left;verticalAlign=top;spacingLeft=4;spacingRight=4;overflow=hidden;rotatable=0;points=[[0,0.5],[1,0.5]];portConstraint=eastwest;whiteSpace=wrap;html=1;" parent="zvFiyfZQ2bwcgoLFCZvI-60" vertex="1">
          <mxGeometry y="26" width="210" height="24" as="geometry" />
        </mxCell>
        <mxCell id="zvFiyfZQ2bwcgoLFCZvI-62" value="" style="line;strokeWidth=1;fillColor=none;align=left;verticalAlign=middle;spacingTop=-1;spacingLeft=3;spacingRight=3;rotatable=0;labelPosition=right;points=[];portConstraint=eastwest;strokeColor=inherit;" parent="zvFiyfZQ2bwcgoLFCZvI-60" vertex="1">
          <mxGeometry y="50" width="210" height="10" as="geometry" />
        </mxCell>
        <mxCell id="zvFiyfZQ2bwcgoLFCZvI-63" value="Vente" style="swimlane;fontStyle=1;align=center;verticalAlign=top;childLayout=stackLayout;horizontal=1;startSize=26;horizontalStack=0;resizeParent=1;resizeParentMax=0;resizeLast=0;collapsible=1;marginBottom=0;whiteSpace=wrap;html=1;" parent="WIyWlLk6GJQsqaUBKTNV-1" vertex="1">
          <mxGeometry x="240" y="750" width="170" height="34" as="geometry" />
        </mxCell>
        <mxCell id="zvFiyfZQ2bwcgoLFCZvI-65" value="" style="line;strokeWidth=1;fillColor=none;align=left;verticalAlign=middle;spacingTop=-1;spacingLeft=3;spacingRight=3;rotatable=0;labelPosition=right;points=[];portConstraint=eastwest;strokeColor=inherit;" parent="zvFiyfZQ2bwcgoLFCZvI-63" vertex="1">
          <mxGeometry y="26" width="170" height="8" as="geometry" />
        </mxCell>
        <mxCell id="zvFiyfZQ2bwcgoLFCZvI-66" value="VenteFuture" style="swimlane;fontStyle=1;align=center;verticalAlign=top;childLayout=stackLayout;horizontal=1;startSize=26;horizontalStack=0;resizeParent=1;resizeParentMax=0;resizeLast=0;collapsible=1;marginBottom=0;whiteSpace=wrap;html=1;" parent="WIyWlLk6GJQsqaUBKTNV-1" vertex="1">
          <mxGeometry x="410" y="860" width="170" height="34" as="geometry" />
        </mxCell>
        <mxCell id="zvFiyfZQ2bwcgoLFCZvI-68" value="" style="line;strokeWidth=1;fillColor=none;align=left;verticalAlign=middle;spacingTop=-1;spacingLeft=3;spacingRight=3;rotatable=0;labelPosition=right;points=[];portConstraint=eastwest;strokeColor=inherit;" parent="zvFiyfZQ2bwcgoLFCZvI-66" vertex="1">
          <mxGeometry y="26" width="170" height="8" as="geometry" />
        </mxCell>
        <mxCell id="zvFiyfZQ2bwcgoLFCZvI-69" value="Adjudication" style="swimlane;fontStyle=1;align=center;verticalAlign=top;childLayout=stackLayout;horizontal=1;startSize=26;horizontalStack=0;resizeParent=1;resizeParentMax=0;resizeLast=0;collapsible=1;marginBottom=0;whiteSpace=wrap;html=1;" parent="WIyWlLk6GJQsqaUBKTNV-1" vertex="1">
          <mxGeometry x="630" y="860" width="170" height="34" as="geometry" />
        </mxCell>
        <mxCell id="zvFiyfZQ2bwcgoLFCZvI-71" value="" style="line;strokeWidth=1;fillColor=none;align=left;verticalAlign=middle;spacingTop=-1;spacingLeft=3;spacingRight=3;rotatable=0;labelPosition=right;points=[];portConstraint=eastwest;strokeColor=inherit;" parent="zvFiyfZQ2bwcgoLFCZvI-69" vertex="1">
          <mxGeometry y="26" width="170" height="8" as="geometry" />
        </mxCell>
        <mxCell id="zvFiyfZQ2bwcgoLFCZvI-72" value="VenteTerrain" style="swimlane;fontStyle=1;align=center;verticalAlign=top;childLayout=stackLayout;horizontal=1;startSize=26;horizontalStack=0;resizeParent=1;resizeParentMax=0;resizeLast=0;collapsible=1;marginBottom=0;whiteSpace=wrap;html=1;" parent="WIyWlLk6GJQsqaUBKTNV-1" vertex="1">
          <mxGeometry x="800" y="750" width="170" height="34" as="geometry" />
        </mxCell>
        <mxCell id="zvFiyfZQ2bwcgoLFCZvI-74" value="" style="line;strokeWidth=1;fillColor=none;align=left;verticalAlign=middle;spacingTop=-1;spacingLeft=3;spacingRight=3;rotatable=0;labelPosition=right;points=[];portConstraint=eastwest;strokeColor=inherit;" parent="zvFiyfZQ2bwcgoLFCZvI-72" vertex="1">
          <mxGeometry y="26" width="170" height="8" as="geometry" />
        </mxCell>
        <mxCell id="zvFiyfZQ2bwcgoLFCZvI-76" value="&lt;div&gt;&lt;br&gt;&lt;/div&gt;&lt;div&gt;&lt;br&gt;&lt;/div&gt;" style="endArrow=block;endSize=16;endFill=0;html=1;exitX=0.5;exitY=0;exitDx=0;exitDy=0;rounded=0;edgeStyle=orthogonalEdgeStyle;entryX=0.5;entryY=1;entryDx=0;entryDy=0;" parent="WIyWlLk6GJQsqaUBKTNV-1" source="zvFiyfZQ2bwcgoLFCZvI-63" target="zvFiyfZQ2bwcgoLFCZvI-36" edge="1">
          <mxGeometry x="-0.0588" y="-35" width="160" relative="1" as="geometry">
            <mxPoint x="310" y="620" as="sourcePoint" />
            <mxPoint x="530" y="710" as="targetPoint" />
            <mxPoint as="offset" />
          </mxGeometry>
        </mxCell>
        <mxCell id="zvFiyfZQ2bwcgoLFCZvI-78" value="&lt;div&gt;&lt;br&gt;&lt;/div&gt;&lt;div&gt;&lt;br&gt;&lt;/div&gt;" style="endArrow=block;endSize=16;endFill=0;html=1;exitX=0.5;exitY=0;exitDx=0;exitDy=0;entryX=0.5;entryY=1;entryDx=0;entryDy=0;rounded=0;edgeStyle=orthogonalEdgeStyle;" parent="WIyWlLk6GJQsqaUBKTNV-1" source="zvFiyfZQ2bwcgoLFCZvI-66" target="zvFiyfZQ2bwcgoLFCZvI-36" edge="1">
          <mxGeometry x="-0.0588" y="-35" width="160" relative="1" as="geometry">
            <mxPoint x="335" y="760" as="sourcePoint" />
            <mxPoint x="625" y="710" as="targetPoint" />
            <mxPoint as="offset" />
          </mxGeometry>
        </mxCell>
        <mxCell id="zvFiyfZQ2bwcgoLFCZvI-79" value="&lt;div&gt;&lt;br&gt;&lt;/div&gt;&lt;div&gt;&lt;br&gt;&lt;/div&gt;" style="endArrow=block;endSize=16;endFill=0;html=1;exitX=0.5;exitY=0;exitDx=0;exitDy=0;entryX=0.5;entryY=1;entryDx=0;entryDy=0;rounded=0;edgeStyle=orthogonalEdgeStyle;" parent="WIyWlLk6GJQsqaUBKTNV-1" source="zvFiyfZQ2bwcgoLFCZvI-69" target="zvFiyfZQ2bwcgoLFCZvI-36" edge="1">
          <mxGeometry x="-0.0588" y="-35" width="160" relative="1" as="geometry">
            <mxPoint x="505" y="870" as="sourcePoint" />
            <mxPoint x="635" y="720" as="targetPoint" />
            <mxPoint as="offset" />
          </mxGeometry>
        </mxCell>
        <mxCell id="zvFiyfZQ2bwcgoLFCZvI-80" value="&lt;div&gt;&lt;br&gt;&lt;/div&gt;&lt;div&gt;&lt;br&gt;&lt;/div&gt;" style="endArrow=block;endSize=16;endFill=0;html=1;exitX=0.5;exitY=0;exitDx=0;exitDy=0;entryX=0.5;entryY=1;entryDx=0;entryDy=0;rounded=0;edgeStyle=orthogonalEdgeStyle;" parent="WIyWlLk6GJQsqaUBKTNV-1" source="zvFiyfZQ2bwcgoLFCZvI-72" target="zvFiyfZQ2bwcgoLFCZvI-36" edge="1">
          <mxGeometry x="-0.0588" y="-35" width="160" relative="1" as="geometry">
            <mxPoint x="725" y="870" as="sourcePoint" />
            <mxPoint x="645" y="730" as="targetPoint" />
            <mxPoint as="offset" />
            <Array as="points">
              <mxPoint x="885" y="740" />
              <mxPoint x="700" y="740" />
              <mxPoint x="700" y="730" />
              <mxPoint x="615" y="730" />
            </Array>
          </mxGeometry>
        </mxCell>
        <mxCell id="zvFiyfZQ2bwcgoLFCZvI-82" value="" style="endArrow=block;endSize=16;endFill=0;html=1;rounded=0;entryX=0.5;entryY=1;entryDx=0;entryDy=0;exitX=0.5;exitY=0;exitDx=0;exitDy=0;edgeStyle=orthogonalEdgeStyle;" parent="WIyWlLk6GJQsqaUBKTNV-1" source="zvFiyfZQ2bwcgoLFCZvI-36" target="zvFiyfZQ2bwcgoLFCZvI-57" edge="1">
          <mxGeometry width="160" relative="1" as="geometry">
            <mxPoint x="330" y="660" as="sourcePoint" />
            <mxPoint x="490" y="660" as="targetPoint" />
          </mxGeometry>
        </mxCell>
        <mxCell id="zvFiyfZQ2bwcgoLFCZvI-84" value="" style="endArrow=block;endSize=16;endFill=0;html=1;rounded=0;exitX=1;exitY=0.5;exitDx=0;exitDy=0;edgeStyle=orthogonalEdgeStyle;entryX=0;entryY=0.5;entryDx=0;entryDy=0;" parent="WIyWlLk6GJQsqaUBKTNV-1" source="zvFiyfZQ2bwcgoLFCZvI-55" target="zvFiyfZQ2bwcgoLFCZvI-34" edge="1">
          <mxGeometry width="160" relative="1" as="geometry">
            <mxPoint x="325" y="450" as="sourcePoint" />
            <mxPoint x="280" y="290" as="targetPoint" />
          </mxGeometry>
        </mxCell>
        <mxCell id="zvFiyfZQ2bwcgoLFCZvI-85" value="" style="endArrow=block;endSize=16;endFill=0;html=1;rounded=0;exitX=1;exitY=0.5;exitDx=0;exitDy=0;edgeStyle=orthogonalEdgeStyle;entryX=0;entryY=0.5;entryDx=0;entryDy=0;" parent="WIyWlLk6GJQsqaUBKTNV-1" source="zvFiyfZQ2bwcgoLFCZvI-40" target="zvFiyfZQ2bwcgoLFCZvI-34" edge="1">
          <mxGeometry width="160" relative="1" as="geometry">
            <mxPoint x="130" y="138" as="sourcePoint" />
            <mxPoint x="280" y="290" as="targetPoint" />
          </mxGeometry>
        </mxCell>
        <mxCell id="zvFiyfZQ2bwcgoLFCZvI-88" value="" style="endArrow=block;endSize=16;endFill=0;html=1;rounded=0;exitX=1;exitY=0.5;exitDx=0;exitDy=0;edgeStyle=orthogonalEdgeStyle;entryX=0;entryY=0.5;entryDx=0;entryDy=0;" parent="WIyWlLk6GJQsqaUBKTNV-1" source="zvFiyfZQ2bwcgoLFCZvI-49" target="zvFiyfZQ2bwcgoLFCZvI-34" edge="1">
          <mxGeometry width="160" relative="1" as="geometry">
            <mxPoint x="330" y="480" as="sourcePoint" />
            <mxPoint x="180" y="300" as="targetPoint" />
          </mxGeometry>
        </mxCell>
        <mxCell id="zvFiyfZQ2bwcgoLFCZvI-89" value="" style="endArrow=block;endSize=16;endFill=0;html=1;rounded=0;exitX=1;exitY=0.5;exitDx=0;exitDy=0;entryX=0;entryY=0.5;entryDx=0;entryDy=0;edgeStyle=orthogonalEdgeStyle;" parent="WIyWlLk6GJQsqaUBKTNV-1" source="zvFiyfZQ2bwcgoLFCZvI-52" target="zvFiyfZQ2bwcgoLFCZvI-34" edge="1">
          <mxGeometry width="160" relative="1" as="geometry">
            <mxPoint x="340" y="370" as="sourcePoint" />
            <mxPoint x="500" y="370" as="targetPoint" />
          </mxGeometry>
        </mxCell>
        <mxCell id="zvFiyfZQ2bwcgoLFCZvI-91" value="" style="endArrow=block;endSize=16;endFill=0;html=1;rounded=0;exitX=0;exitY=0.5;exitDx=0;exitDy=0;edgeStyle=orthogonalEdgeStyle;entryX=1;entryY=0.5;entryDx=0;entryDy=0;" parent="WIyWlLk6GJQsqaUBKTNV-1" source="zvFiyfZQ2bwcgoLFCZvI-24" target="zvFiyfZQ2bwcgoLFCZvI-105" edge="1">
          <mxGeometry x="0.1167" y="15" width="160" relative="1" as="geometry">
            <mxPoint x="460" y="308" as="sourcePoint" />
            <mxPoint x="660" y="348" as="targetPoint" />
            <mxPoint as="offset" />
          </mxGeometry>
        </mxCell>
        <mxCell id="zvFiyfZQ2bwcgoLFCZvI-92" value="" style="endArrow=block;endSize=16;endFill=0;html=1;rounded=0;exitX=0;exitY=0.5;exitDx=0;exitDy=0;edgeStyle=orthogonalEdgeStyle;entryX=1;entryY=0.5;entryDx=0;entryDy=0;" parent="WIyWlLk6GJQsqaUBKTNV-1" source="zvFiyfZQ2bwcgoLFCZvI-21" target="zvFiyfZQ2bwcgoLFCZvI-105" edge="1">
          <mxGeometry x="0.1167" y="15" width="160" relative="1" as="geometry">
            <mxPoint x="810" y="210" as="sourcePoint" />
            <mxPoint x="660" y="348" as="targetPoint" />
            <mxPoint as="offset" />
          </mxGeometry>
        </mxCell>
        <mxCell id="zvFiyfZQ2bwcgoLFCZvI-93" value="" style="endArrow=block;endSize=16;endFill=0;html=1;rounded=0;exitX=0;exitY=0.5;exitDx=0;exitDy=0;edgeStyle=orthogonalEdgeStyle;entryX=1;entryY=0.5;entryDx=0;entryDy=0;" parent="WIyWlLk6GJQsqaUBKTNV-1" source="zvFiyfZQ2bwcgoLFCZvI-61" target="zvFiyfZQ2bwcgoLFCZvI-105" edge="1">
          <mxGeometry x="0.1167" y="15" width="160" relative="1" as="geometry">
            <mxPoint x="980" y="520" as="sourcePoint" />
            <mxPoint x="660" y="348" as="targetPoint" />
            <mxPoint as="offset" />
          </mxGeometry>
        </mxCell>
        <mxCell id="zvFiyfZQ2bwcgoLFCZvI-94" value="" style="endArrow=block;endSize=16;endFill=0;html=1;rounded=0;exitX=0;exitY=0.5;exitDx=0;exitDy=0;edgeStyle=orthogonalEdgeStyle;entryX=1;entryY=0.5;entryDx=0;entryDy=0;" parent="WIyWlLk6GJQsqaUBKTNV-1" source="zvFiyfZQ2bwcgoLFCZvI-43" target="zvFiyfZQ2bwcgoLFCZvI-24" edge="1">
          <mxGeometry x="0.1167" y="15" width="160" relative="1" as="geometry">
            <mxPoint x="1041" y="133.32999999999998" as="sourcePoint" />
            <mxPoint x="811" y="133.32999999999998" as="targetPoint" />
            <mxPoint as="offset" />
          </mxGeometry>
        </mxCell>
        <mxCell id="zvFiyfZQ2bwcgoLFCZvI-95" value="" style="endArrow=block;endSize=16;endFill=0;html=1;rounded=0;exitX=0;exitY=0.5;exitDx=0;exitDy=0;edgeStyle=orthogonalEdgeStyle;entryX=1;entryY=0.5;entryDx=0;entryDy=0;" parent="WIyWlLk6GJQsqaUBKTNV-1" source="zvFiyfZQ2bwcgoLFCZvI-26" target="zvFiyfZQ2bwcgoLFCZvI-24" edge="1">
          <mxGeometry x="0.1167" y="15" width="160" relative="1" as="geometry">
            <mxPoint x="1281" y="168" as="sourcePoint" />
            <mxPoint x="1191" y="274" as="targetPoint" />
            <mxPoint as="offset" />
            <Array as="points">
              <mxPoint x="1241" y="223" />
              <mxPoint x="1241" y="264" />
            </Array>
          </mxGeometry>
        </mxCell>
        <mxCell id="zvFiyfZQ2bwcgoLFCZvI-96" value="" style="endArrow=none;html=1;rounded=0;entryX=0.5;entryY=1;entryDx=0;entryDy=0;exitX=0.5;exitY=0;exitDx=0;exitDy=0;" parent="WIyWlLk6GJQsqaUBKTNV-1" source="zvFiyfZQ2bwcgoLFCZvI-0" target="zvFiyfZQ2bwcgoLFCZvI-33" edge="1">
          <mxGeometry width="50" height="50" relative="1" as="geometry">
            <mxPoint x="510" y="330" as="sourcePoint" />
            <mxPoint x="870" y="540" as="targetPoint" />
          </mxGeometry>
        </mxCell>
        <mxCell id="zvFiyfZQ2bwcgoLFCZvI-98" value="Sittué" style="edgeLabel;html=1;align=center;verticalAlign=middle;resizable=0;points=[];" parent="zvFiyfZQ2bwcgoLFCZvI-96" vertex="1" connectable="0">
          <mxGeometry x="0.1351" relative="1" as="geometry">
            <mxPoint x="-1" as="offset" />
          </mxGeometry>
        </mxCell>
        <mxCell id="BMfGbZNzIfaFoAmvjdPX-0" value="1" style="edgeLabel;html=1;align=center;verticalAlign=middle;resizable=0;points=[];" parent="zvFiyfZQ2bwcgoLFCZvI-96" vertex="1" connectable="0">
          <mxGeometry x="0.7409" y="-1" relative="1" as="geometry">
            <mxPoint as="offset" />
          </mxGeometry>
        </mxCell>
        <mxCell id="BMfGbZNzIfaFoAmvjdPX-1" value="1...*" style="edgeLabel;html=1;align=center;verticalAlign=middle;resizable=0;points=[];" parent="zvFiyfZQ2bwcgoLFCZvI-96" vertex="1" connectable="0">
          <mxGeometry x="-0.5993" y="1" relative="1" as="geometry">
            <mxPoint as="offset" />
          </mxGeometry>
        </mxCell>
        <mxCell id="zvFiyfZQ2bwcgoLFCZvI-104" value="TypeLocal" style="swimlane;fontStyle=1;align=center;verticalAlign=top;childLayout=stackLayout;horizontal=1;startSize=26;horizontalStack=0;resizeParent=1;resizeParentMax=0;resizeLast=0;collapsible=1;marginBottom=0;whiteSpace=wrap;html=1;" parent="WIyWlLk6GJQsqaUBKTNV-1" vertex="1">
          <mxGeometry x="790" y="310" width="140" height="60" as="geometry" />
        </mxCell>
        <mxCell id="zvFiyfZQ2bwcgoLFCZvI-105" value="+ nom: Texte" style="text;strokeColor=none;fillColor=none;align=left;verticalAlign=top;spacingLeft=4;spacingRight=4;overflow=hidden;rotatable=0;points=[[0,0.5],[1,0.5]];portConstraint=eastwest;whiteSpace=wrap;html=1;" parent="zvFiyfZQ2bwcgoLFCZvI-104" vertex="1">
          <mxGeometry y="26" width="140" height="24" as="geometry" />
        </mxCell>
        <mxCell id="zvFiyfZQ2bwcgoLFCZvI-106" value="" style="line;strokeWidth=1;fillColor=none;align=left;verticalAlign=middle;spacingTop=-1;spacingLeft=3;spacingRight=3;rotatable=0;labelPosition=right;points=[];portConstraint=eastwest;strokeColor=inherit;" parent="zvFiyfZQ2bwcgoLFCZvI-104" vertex="1">
          <mxGeometry y="50" width="140" height="10" as="geometry" />
        </mxCell>
        <mxCell id="zvFiyfZQ2bwcgoLFCZvI-107" value="" style="endArrow=block;endSize=16;endFill=0;html=1;rounded=0;exitX=0;exitY=0.5;exitDx=0;exitDy=0;edgeStyle=orthogonalEdgeStyle;entryX=1;entryY=0.5;entryDx=0;entryDy=0;" parent="WIyWlLk6GJQsqaUBKTNV-1" source="zvFiyfZQ2bwcgoLFCZvI-105" target="zvFiyfZQ2bwcgoLFCZvI-1" edge="1">
          <mxGeometry x="0.1167" y="15" width="160" relative="1" as="geometry">
            <mxPoint x="1051" y="434" as="sourcePoint" />
            <mxPoint x="890" y="358" as="targetPoint" />
            <mxPoint as="offset" />
          </mxGeometry>
        </mxCell>
        <mxCell id="zvFiyfZQ2bwcgoLFCZvI-108" value="" style="endArrow=diamondThin;endFill=1;endSize=24;html=1;rounded=0;entryX=0.5;entryY=0;entryDx=0;entryDy=0;exitX=0.5;exitY=1;exitDx=0;exitDy=0;" parent="WIyWlLk6GJQsqaUBKTNV-1" source="zvFiyfZQ2bwcgoLFCZvI-0" target="zvFiyfZQ2bwcgoLFCZvI-57" edge="1">
          <mxGeometry width="160" relative="1" as="geometry">
            <mxPoint x="760" y="510" as="sourcePoint" />
            <mxPoint x="920" y="510" as="targetPoint" />
          </mxGeometry>
        </mxCell>
        <mxCell id="zvFiyfZQ2bwcgoLFCZvI-109" value="Change de propietaire" style="edgeLabel;html=1;align=center;verticalAlign=middle;resizable=0;points=[];" parent="zvFiyfZQ2bwcgoLFCZvI-108" vertex="1" connectable="0">
          <mxGeometry x="0.1014" y="-1" relative="1" as="geometry">
            <mxPoint as="offset" />
          </mxGeometry>
        </mxCell>
        <mxCell id="BMfGbZNzIfaFoAmvjdPX-2" value="1" style="edgeLabel;html=1;align=center;verticalAlign=middle;resizable=0;points=[];" parent="zvFiyfZQ2bwcgoLFCZvI-108" vertex="1" connectable="0">
          <mxGeometry x="-0.717" y="2" relative="1" as="geometry">
            <mxPoint as="offset" />
          </mxGeometry>
        </mxCell>
        <mxCell id="BMfGbZNzIfaFoAmvjdPX-3" value="1...*" style="edgeLabel;html=1;align=center;verticalAlign=middle;resizable=0;points=[];" parent="zvFiyfZQ2bwcgoLFCZvI-108" vertex="1" connectable="0">
          <mxGeometry x="0.6548" y="1" relative="1" as="geometry">
            <mxPoint as="offset" />
          </mxGeometry>
        </mxCell>
        <mxCell id="OF1MOhQnZ-KdvrDq1Z5N-0" value="Année" style="swimlane;fontStyle=1;align=center;verticalAlign=top;childLayout=stackLayout;horizontal=1;startSize=26;horizontalStack=0;resizeParent=1;resizeParentMax=0;resizeLast=0;collapsible=1;marginBottom=0;whiteSpace=wrap;html=1;" vertex="1" parent="WIyWlLk6GJQsqaUBKTNV-1">
          <mxGeometry x="-20" y="298" width="170" height="58" as="geometry" />
        </mxCell>
        <mxCell id="OF1MOhQnZ-KdvrDq1Z5N-1" value="&lt;div&gt;+ nom: int&lt;/div&gt;&lt;div&gt;&lt;br&gt;&lt;/div&gt;&lt;div&gt;&lt;br&gt;&lt;/div&gt;" style="text;strokeColor=none;fillColor=none;align=left;verticalAlign=top;spacingLeft=4;spacingRight=4;overflow=hidden;rotatable=0;points=[[0,0.5],[1,0.5]];portConstraint=eastwest;whiteSpace=wrap;html=1;" vertex="1" parent="OF1MOhQnZ-KdvrDq1Z5N-0">
          <mxGeometry y="26" width="170" height="24" as="geometry" />
        </mxCell>
        <mxCell id="OF1MOhQnZ-KdvrDq1Z5N-2" value="" style="line;strokeWidth=1;fillColor=none;align=left;verticalAlign=middle;spacingTop=-1;spacingLeft=3;spacingRight=3;rotatable=0;labelPosition=right;points=[];portConstraint=eastwest;strokeColor=inherit;" vertex="1" parent="OF1MOhQnZ-KdvrDq1Z5N-0">
          <mxGeometry y="50" width="170" height="8" as="geometry" />
        </mxCell>
        <mxCell id="OF1MOhQnZ-KdvrDq1Z5N-3" value="PopulationAge" style="swimlane;fontStyle=1;align=center;verticalAlign=top;childLayout=stackLayout;horizontal=1;startSize=26;horizontalStack=0;resizeParent=1;resizeParentMax=0;resizeLast=0;collapsible=1;marginBottom=0;whiteSpace=wrap;html=1;" vertex="1" parent="WIyWlLk6GJQsqaUBKTNV-1">
          <mxGeometry x="-20" y="168" width="170" height="58" as="geometry" />
        </mxCell>
        <mxCell id="OF1MOhQnZ-KdvrDq1Z5N-4" value="&lt;div&gt;+ Population: Numérique&lt;br&gt;&lt;/div&gt;" style="text;strokeColor=none;fillColor=none;align=left;verticalAlign=top;spacingLeft=4;spacingRight=4;overflow=hidden;rotatable=0;points=[[0,0.5],[1,0.5]];portConstraint=eastwest;whiteSpace=wrap;html=1;" vertex="1" parent="OF1MOhQnZ-KdvrDq1Z5N-3">
          <mxGeometry y="26" width="170" height="24" as="geometry" />
        </mxCell>
        <mxCell id="OF1MOhQnZ-KdvrDq1Z5N-5" value="" style="line;strokeWidth=1;fillColor=none;align=left;verticalAlign=middle;spacingTop=-1;spacingLeft=3;spacingRight=3;rotatable=0;labelPosition=right;points=[];portConstraint=eastwest;strokeColor=inherit;" vertex="1" parent="OF1MOhQnZ-KdvrDq1Z5N-3">
          <mxGeometry y="50" width="170" height="8" as="geometry" />
        </mxCell>
        <mxCell id="OF1MOhQnZ-KdvrDq1Z5N-6" value="Extends" style="endArrow=block;endSize=16;endFill=0;html=1;rounded=0;exitX=0;exitY=0.5;exitDx=0;exitDy=0;entryX=1;entryY=0.75;entryDx=0;entryDy=0;edgeStyle=orthogonalEdgeStyle;" edge="1" parent="WIyWlLk6GJQsqaUBKTNV-1" source="zvFiyfZQ2bwcgoLFCZvI-49" target="OF1MOhQnZ-KdvrDq1Z5N-3">
          <mxGeometry width="160" relative="1" as="geometry">
            <mxPoint x="450" y="570" as="sourcePoint" />
            <mxPoint x="610" y="570" as="targetPoint" />
          </mxGeometry>
        </mxCell>
        <mxCell id="OF1MOhQnZ-KdvrDq1Z5N-7" value="Extends" style="endArrow=block;endSize=16;endFill=0;html=1;rounded=0;exitX=0.5;exitY=0;exitDx=0;exitDy=0;entryX=0.5;entryY=1;entryDx=0;entryDy=0;edgeStyle=orthogonalEdgeStyle;" edge="1" parent="WIyWlLk6GJQsqaUBKTNV-1" source="OF1MOhQnZ-KdvrDq1Z5N-0" target="OF1MOhQnZ-KdvrDq1Z5N-3">
          <mxGeometry width="160" relative="1" as="geometry">
            <mxPoint x="240" y="266" as="sourcePoint" />
            <mxPoint x="160" y="222" as="targetPoint" />
          </mxGeometry>
        </mxCell>
      </root>
    </mxGraphModel>
  </diagram>
</mxfile>
